<svg width="29" height="29" viewBox="0 0 29 29" fill="none" xmlns="http://www.w3.org/2000/svg">
<g clip-path="url(#clip0_84_82)">
<path d="M7.2566 8.13625C6.89942 7.83609 6.4393 7.69126 5.97687 7.73345C5.51444 7.77563 5.08733 8.00139 4.78897 8.36136L0.408143 13.6806C0.14449 13.999 0 14.4011 0 14.8165C0 15.2319 0.14449 15.634 0.408143 15.9524L4.78897 21.2717C4.93593 21.4518 5.11664 21.6008 5.32071 21.7101C5.52478 21.8194 5.74818 21.8867 5.97806 21.9083C6.20795 21.93 6.43979 21.9054 6.66026 21.836C6.88073 21.7667 7.08547 21.6539 7.26273 21.5042C7.43998 21.3545 7.58624 21.1708 7.6931 20.9638C7.79997 20.7567 7.86532 20.5303 7.88542 20.2975C7.90551 20.0648 7.87995 19.8304 7.81019 19.6077C7.74044 19.385 7.62787 19.1784 7.47896 18.9999L4.03259 14.8166L7.47904 10.6332C7.77667 10.2722 7.92043 9.80634 7.87872 9.33811C7.837 8.86988 7.61323 8.43758 7.2566 8.13625Z" fill="#052659"/>
<path d="M16.1141 4.21261C15.6589 4.1254 15.188 4.22239 14.8027 4.48272C14.4175 4.74306 14.1485 5.14595 14.0537 5.6048L10.5491 23.3357C10.5036 23.564 10.5032 23.7992 10.5478 24.0277C10.5924 24.2562 10.6811 24.4735 10.809 24.6672C10.9368 24.8609 11.1012 25.0271 11.2927 25.1564C11.4842 25.2856 11.6991 25.3753 11.9249 25.4203C12.0386 25.444 12.1545 25.4556 12.2706 25.4549C12.6753 25.4543 13.0673 25.3118 13.3799 25.0517C13.6925 24.7916 13.9064 24.43 13.9853 24.0283L17.4899 6.29739C17.5354 6.06904 17.5359 5.83386 17.4913 5.60535C17.4467 5.37683 17.3579 5.15947 17.23 4.96576C17.1022 4.77205 16.9378 4.6058 16.7463 4.47655C16.5548 4.3473 16.3399 4.2576 16.1141 4.21261Z" fill="#052659"/>
<path d="M27.6308 13.6806L23.25 8.36136C23.103 8.18119 22.9223 8.03219 22.7182 7.92292C22.5142 7.81366 22.2908 7.74628 22.0609 7.72467C21.831 7.70306 21.5992 7.72764 21.3787 7.797C21.1582 7.86636 20.9535 7.97912 20.7762 8.12882C20.599 8.27851 20.4527 8.46218 20.3459 8.66926C20.239 8.87634 20.1736 9.10276 20.1535 9.33548C20.1334 9.56821 20.159 9.80266 20.2288 10.0254C20.2985 10.2481 20.4111 10.4546 20.56 10.6331L24.0064 14.8166L20.5599 19C20.411 19.1785 20.2984 19.385 20.2287 19.6077C20.1589 19.8304 20.1334 20.0649 20.1535 20.2976C20.1735 20.5303 20.2389 20.7567 20.3458 20.9638C20.4526 21.1709 20.5989 21.3546 20.7761 21.5043C20.9534 21.654 21.1581 21.7667 21.3786 21.8361C21.5991 21.9054 21.8309 21.93 22.0608 21.9084C22.2907 21.8868 22.5141 21.8194 22.7182 21.7102C22.9222 21.6009 23.1029 21.4519 23.2499 21.2717L27.6308 15.9524C27.8945 15.634 28.039 15.2319 28.039 14.8165C28.039 14.4011 27.8945 13.999 27.6308 13.6806Z" fill="#052659"/>
</g>
<defs>
<clipPath id="clip0_84_82">
<rect width="28.039" height="28.3712" fill="white" transform="translate(0 0.630981)"/>
</clipPath>
</defs>
</svg>
