<svg width="29" height="30" viewBox="0 0 29 30" fill="none" xmlns="http://www.w3.org/2000/svg">
<g clip-path="url(#clip0_84_88)">
<path d="M26.2865 4.00603H1.75243C1.28766 4.00603 0.841922 4.19285 0.513276 4.52539C0.184631 4.85793 0 5.30895 0 5.77923L0 22.3291C0 22.7994 0.184631 23.2504 0.513276 23.5829C0.841922 23.9155 1.28766 24.1023 1.75243 24.1023H26.2865C26.7513 24.1023 27.197 23.9155 27.5257 23.5829C27.8543 23.2504 28.039 22.7994 28.039 22.3291V5.77923C28.039 5.30895 27.8543 4.85793 27.5257 4.52539C27.197 4.19285 26.7513 4.00603 26.2865 4.00603ZM25.9127 5.18816L14.0195 14.4915L2.12629 5.18816H25.9127ZM1.16829 22.0867V5.9329L10.17 12.9725L1.16829 22.0867ZM1.99193 22.9201L11.0988 13.7054L13.6573 15.7091C13.7595 15.7887 13.8847 15.8318 14.0136 15.8318C14.1425 15.8318 14.2678 15.7887 14.37 15.7091L16.9402 13.7054L26.047 22.9201H1.99193ZM26.8707 22.0867L17.869 12.9725L26.8707 5.9329V22.0867Z" fill="#052659"/>
</g>
<defs>
<clipPath id="clip0_84_88">
<rect width="28.039" height="28.3712" fill="white" transform="translate(0 0.668243)"/>
</clipPath>
</defs>
</svg>
