<svg width="29" height="31" viewBox="0 0 29 31" fill="none" xmlns="http://www.w3.org/2000/svg">
<path d="M24.7047 11.4642L15.8841 3.78517C14.8034 2.84517 13.2356 2.84517 12.1549 3.78517L3.33547 11.4629C3.02587 11.732 2.84946 12.1301 2.84946 12.5556V27.0036C2.84946 27.7797 3.43944 28.418 4.16378 28.418H10.0777C10.802 28.418 11.392 27.7797 11.392 27.0036V17.8589H16.6481V27.0036C16.6481 27.7797 17.2381 28.418 17.9625 28.418H23.8763C24.6007 28.418 25.1907 27.7797 25.1907 27.0036V12.5556C25.1895 12.1301 25.0131 11.732 24.7047 11.4642ZM23.8752 27.0112H17.9613V17.8527C17.9613 17.0767 17.3713 16.4521 16.647 16.4521H11.3908C10.6665 16.4521 10.0765 17.0767 10.0765 17.8527V27.0112H4.16378V12.5556L12.9844 4.87788C13.5837 4.35468 14.4564 4.35593 15.0558 4.87788L23.8763 12.5556L23.8752 27.0112Z" fill="#052659"/>
</svg>
