<svg width="29" height="30" viewBox="0 0 29 30" fill="none" xmlns="http://www.w3.org/2000/svg">
<g clip-path="url(#clip0_84_77)">
<path d="M12.8512 20.8214H15.1878V13.7286H12.8512V20.8214ZM14.0195 3.08939C7.56468 3.08939 2.33658 8.37943 2.33658 14.9107C2.33658 21.442 7.56468 26.732 14.0195 26.732C20.4743 26.732 25.7024 21.442 25.7024 14.9107C25.7024 8.37943 20.4743 3.08939 14.0195 3.08939ZM14.0195 24.3678C8.86732 24.3678 4.67316 20.1239 4.67316 14.9107C4.67316 9.69751 8.86732 5.45365 14.0195 5.45365C19.1716 5.45365 23.3658 9.69751 23.3658 14.9107C23.3658 20.1239 19.1716 24.3678 14.0195 24.3678ZM12.8512 11.3643H15.1878V9.00005H12.8512V11.3643Z" fill="#052659"/>
</g>
<defs>
<clipPath id="clip0_84_77">
<rect width="28.039" height="28.3712" fill="white" transform="translate(0 0.725128)"/>
</clipPath>
</defs>
</svg>
